<?xml version="1.0" encoding="UTF-8" standalone="no"?>
<svg
   xmlns:dc="http://purl.org/dc/elements/1.1/"
   xmlns:cc="http://creativecommons.org/ns#"
   xmlns:rdf="http://www.w3.org/1999/02/22-rdf-syntax-ns#"
   xmlns:svg="http://www.w3.org/2000/svg"
   xmlns="http://www.w3.org/2000/svg"
   xmlns:sodipodi="http://sodipodi.sourceforge.net/DTD/sodipodi-0.dtd"
   xmlns:inkscape="http://www.inkscape.org/namespaces/inkscape"
   width="378"
   height="60"
   viewBox="0 0 378 60"
   version="1.1"
   id="svg3600"
   inkscape:version="0.91 r13725"
   sodipodi:docname="marco-zone-text-path.svg"
   inkscape:export-filename="/Users/marco/Workspace/private/marco.zone/assets/marco-zone-text.png"
   inkscape:export-xdpi="90"
   inkscape:export-ydpi="90">
  <metadata
     id="metadata3614">
    <rdf:RDF>
      <cc:Work
         rdf:about="">
        <dc:format>image/svg+xml</dc:format>
        <dc:type
           rdf:resource="http://purl.org/dc/dcmitype/StillImage" />
        <dc:title></dc:title>
      </cc:Work>
    </rdf:RDF>
  </metadata>
  <defs
     id="defs3612" />
  <sodipodi:namedview
     pagecolor="#ffffff"
     bordercolor="#666666"
     borderopacity="1"
     objecttolerance="10"
     gridtolerance="10"
     guidetolerance="10"
     inkscape:pageopacity="0"
     inkscape:pageshadow="2"
     inkscape:window-width="1664"
     inkscape:window-height="897"
     id="namedview3610"
     showgrid="true"
     inkscape:zoom="10"
     inkscape:cx="368"
     inkscape:cy="30"
     inkscape:window-x="2005"
     inkscape:window-y="453"
     inkscape:window-maximized="0"
     inkscape:current-layer="svg3600">
    <inkscape:grid
       type="xygrid"
       id="grid3616" />
  </sodipodi:namedview>
  <path
     style="fill:#cd5c5c"
     inkscape:connector-curvature="0"
     id="path3604"
     d="m 6,6 16,0 0,4 -12,0 0,12 -4,0 z"
     sodipodi:nodetypes="ccccccc" />
  <g
     style="font-weight:600;font-size:68.5px;font-family:'Josefin Slab';fill:#cd5c5c"
     id="text3608"
     transform="translate(6,0)">
    <path
       d="m 72.6495,6 7.398,0 0,4 -6.0475,0 0,40 6,0 0,4 -15.0225,0 0,-4 5.069,0 0,-31.716999 0,-1.233 c 0.04567,-0.593667 0.09133,-1.004667 0.137,-1.233 -0.228333,0.365333 -0.502333,0.7535 -0.822,1.1645 -0.274,0.411 -0.570833,0.822 -0.8905,1.233 -1.187333,1.644 -2.580167,3.516333 -4.1785,5.617 -1.552667,2.055 -3.196667,4.201333 -4.932,6.439 -1.735333,2.192 -3.470667,4.429667 -5.206,6.713 -1.735333,2.237667 -3.379333,4.361167 -4.932,6.3705 -2.557333,-3.333667 -4.795,-6.2335 -6.713,-8.6995 -1.872333,-2.466 -3.4935,-4.566667 -4.8635,-6.302 -1.324333,-1.781 -2.443167,-3.265167 -3.3565,-4.4525 -0.867667,-1.187333 -1.621167,-2.169167 -2.2605,-2.9455 -0.593667,-0.822 -1.118833,-1.507 -1.5755,-2.055 -0.411,-0.548 -0.799167,-1.073167 -1.1645,-1.5755 l -1.32725,-1.507 c 0.04567,0.411 0.0685,0.822 0.0685,1.233 C 28.07592,17.415334 28,17.826334 28,18.283001 L 28,50 l 6,0 0,4 -16,0 0,-4 6,0 0,-40 -6,0 0,-4 7.7955,0 c 1.37,1.781 2.991167,3.9945009 4.8635,6.460501 1.872333,2.420333 3.858833,5.0005 5.9595,7.7405 2.100667,2.694333 4.224167,5.457167 6.3705,8.2885 2.192,2.831333 4.269833,5.502833 6.2335,8.0145 3.927333,-5.069 7.831833,-10.138 11.7135,-15.207 C 64.817667,16.228001 68.722167,11.069 72.6495,6 Z"
       style="font-weight:600;font-size:68.5px;font-family:'Josefin Slab';fill:#cd5c5c"
       id="path3622"
       inkscape:connector-curvature="0"
       sodipodi:nodetypes="cccccccccccccccccccccccccccsccccccccccccccsc" />
    <path
       d="m 84.890664,41.230501 c 0,-1.826667 0.3425,-3.539167 1.0275,-5.1375 0.730667,-1.644 1.689667,-3.0825 2.877,-4.3155 1.233,-1.233 2.6715,-2.214833 4.3155,-2.9455 1.689667,-0.730667 3.4935,-1.096 5.4115,-1.096 1.278664,0 2.465996,0.182667 3.561996,0.548 1.14167,0.365333 2.14633,0.822 3.014,1.37 0.86767,0.548 1.5755,1.118833 2.1235,1.7125 0.59367,0.593667 0.959,1.118833 1.096,1.5755 0,-0.730667 0.0228,-1.484167 0.0685,-2.2605 0.0913,-0.776333 0.15983,-1.905168 0.2055,-2.681501 l 3.4935,0 0,22 5.1375,0 0,4 -8.905,0 0,-2.014999 0,-2.2605 c -0.18267,0.456667 -0.548,0.959 -1.096,1.507 -0.50233,0.548 -1.18733,1.073167 -2.055,1.5755 -0.822,0.502333 -1.80383,0.913333 -2.9455,1.233 -1.096,0.365333 -2.328999,0.548 -3.698996,0.548 -1.918,0 -3.721833,-0.3425 -5.4115,-1.0275 -1.644,-0.730667 -3.0825,-1.689667 -4.3155,-2.877 -1.187333,-1.233 -2.146333,-2.648667 -2.877,-4.247 -0.685,-1.644 -1.0275,-3.379333 -1.0275,-5.206 z m 4.3155,-0.0685 c 0,1.324333 0.228333,2.557333 0.685,3.699 0.502333,1.096 1.1645,2.055 1.9865,2.877 0.822,0.822 1.803833,1.484167 2.9455,1.9865 1.141667,0.456667 2.374667,0.685 3.699,0.685 1.324331,0 2.557326,-0.228333 3.698996,-0.685 1.14167,-0.502333 2.1235,-1.1645 2.9455,-1.9865 0.822,-0.822 1.46133,-1.781 1.918,-2.877 0.50233,-1.141667 0.7535,-2.374667 0.7535,-3.699 0,-1.278667 -0.25117,-2.488833 -0.7535,-3.6305 -0.45667,-1.141667 -1.096,-2.1235 -1.918,-2.9455 -0.822,-0.822 -1.80383,-1.461333 -2.9455,-1.918 -1.14167,-0.502333 -2.374665,-0.7535 -3.698996,-0.7535 -1.324333,0 -2.557333,0.251167 -3.699,0.7535 -1.141667,0.456667 -2.1235,1.096 -2.9455,1.918 -0.822,0.822 -1.484167,1.803833 -1.9865,2.9455 -0.456667,1.141667 -0.685,2.351833 -0.685,3.6305 z"
       style="font-weight:600;font-size:68.5px;font-family:'Josefin Slab';fill:#cd5c5c"
       id="path3624"
       inkscape:connector-curvature="0"
       sodipodi:nodetypes="scccscsccccccccccccccscccsscscscscscscscscs" />
    <path
       d="m 122.08402,50 5.2745,0 0,-17.537499 -4.35852,0 L 123,28 l 7.98902,0 0.0685,1.859501 c 0.0457,0.959 0.0913,1.826667 0.137,2.603 0.0913,0.730667 0.15983,1.5755 0.2055,2.5345 0.548,-1.141667 1.233,-2.146333 2.055,-3.014 0.822,-0.913333 1.68967,-1.666833 2.603,-2.2605 0.959,-0.639333 1.918,-1.118833 2.877,-1.4385 1.00467,-0.319667 1.94083,-0.4795 2.8085,-0.4795 l -0.274,4.1785 c -1.41567,0 -2.74,0.228333 -3.973,0.685 -1.18733,0.456667 -2.21483,1.073167 -3.0825,1.8495 -0.86767,0.776333 -1.55267,1.7125 -2.055,2.8085 -0.50233,1.050333 -0.7535,2.214833 -0.7535,3.4935 l 0,9.180499 4.7265,0 0,4 -14.248,0 z"
       style="font-weight:600;font-size:68.5px;font-family:'Josefin Slab';fill:#cd5c5c"
       id="path3626"
       inkscape:connector-curvature="0"
       sodipodi:nodetypes="cccccccccccccccscsccccc" />
    <path
       d="m 168.69292,51.642501 c -1.18733,0.913333 -2.51167,1.644 -3.973,2.192 -1.41567,0.502333 -2.9455,0.7535 -4.5895,0.7535 -1.87233,0 -3.6305,-0.3425 -5.2745,-1.0275 -1.644,-0.730667 -3.0825,-1.689667 -4.3155,-2.877 -1.233,-1.233 -2.21483,-2.648667 -2.9455,-4.247 -0.685,-1.644 -1.0275,-3.402167 -1.0275,-5.2745 0,-1.826667 0.3425,-3.562 1.0275,-5.206 0.73067,-1.644 1.7125,-3.059667 2.9455,-4.247 1.233,-1.233 2.6715,-2.192 4.3155,-2.877 1.644,-0.730667 3.40217,-1.096 5.2745,-1.096 1.68967,0 3.24233,0.274 4.658,0.822 1.46133,0.502333 3.02425,1.210167 4.21158,2.1235 L 169,38 l -4,0 0,-4.783999 c -1.507,-0.867667 -3.17991,-1.3015 -4.86958,-1.3015 -1.32433,0 -2.55733,0.251167 -3.699,0.7535 -1.14167,0.456667 -2.1235,1.096 -2.9455,1.918 -0.822,0.822 -1.48417,1.803833 -1.9865,2.9455 -0.45667,1.141667 -0.685,2.351833 -0.685,3.6305 0,1.324333 0.22833,2.557333 0.685,3.699 0.50233,1.096 1.1645,2.055 1.9865,2.877 0.822,0.822 1.80383,1.484167 2.9455,1.9865 1.14167,0.456667 2.37467,0.685 3.699,0.685 1.18733,0 2.2605,-0.159833 3.2195,-0.4795 1.00467,-0.365333 1.918,-0.867667 2.74,-1.507 z"
       style="font-weight:600;font-size:68.5px;font-family:'Josefin Slab';fill:#cd5c5c"
       id="path3628"
       inkscape:connector-curvature="0"
       sodipodi:nodetypes="ccscccscccscccccscscscscsccc" />
    <path
       d="m 173.59281,41.162001 q 0,-2.74 1.0275,-5.206 1.096,-2.466 2.9455,-4.247 1.8495,-1.8495 4.3155,-2.877 2.466,-1.096 5.2745,-1.096 2.877,0 5.343,1.096 2.5345,1.0275 4.384,2.877 1.8495,1.781 2.877,4.247 1.096,2.466 1.096,5.206 0,2.8085 -1.096,5.2745 -1.0275,2.3975 -2.877,4.247 -1.8495,1.781 -4.384,2.877 -2.466,1.0275 -5.343,1.0275 -2.8085,0 -5.2745,-1.0275 -2.466,-1.096 -4.3155,-2.877 -1.8495,-1.8495 -2.9455,-4.247 -1.0275,-2.466 -1.0275,-5.2745 z m 4.3155,0.0685 q 0,1.918 0.685,3.6305 0.7535,1.644 1.9865,2.877 1.233,1.233 2.877,1.9865 1.7125,0.685 3.6305,0.685 1.918,0 3.6305,-0.685 1.7125,-0.7535 2.9455,-1.9865 1.3015,-1.233 1.9865,-2.877 0.7535,-1.7125 0.7535,-3.6305 0,-1.918 -0.7535,-3.6305 -0.685,-1.7125 -1.9865,-2.9455 -1.233,-1.3015 -2.9455,-1.9865 -1.7125,-0.7535 -3.6305,-0.7535 -1.918,0 -3.6305,0.7535 -1.644,0.685 -2.877,1.9865 -1.233,1.233 -1.9865,2.9455 -0.685,1.7125 -0.685,3.6305 z"
       style="font-weight:600;font-size:68.5px;font-family:'Josefin Slab';fill:#cd5c5c"
       id="path3630"
       inkscape:connector-curvature="0" />
    <path
       d="m 265,39 0,15 -39,0 0,-4.069999 L 257.3362,10 227,10 l 0,-6 5,0 0,2 31,0 0,4.200001 L 231.5802,50 261,50 261,39 Z"
       style="font-weight:600;font-size:68.5px;font-family:'Josefin Slab';fill:#cd5c5c"
       id="path3632"
       inkscape:connector-curvature="0"
       sodipodi:nodetypes="ccccccccccccccc" />
    <path
       d="m 269.38578,41.162001 q 0,-2.74 1.0275,-5.206 1.096,-2.466 2.9455,-4.247 1.8495,-1.8495 4.3155,-2.877 2.466,-1.096 5.2745,-1.096 2.877,0 5.343,1.096 2.5345,1.0275 4.384,2.877 1.8495,1.781 2.877,4.247 1.096,2.466 1.096,5.206 0,2.8085 -1.096,5.2745 -1.0275,2.3975 -2.877,4.247 -1.8495,1.781 -4.384,2.877 -2.466,1.0275 -5.343,1.0275 -2.8085,0 -5.2745,-1.0275 -2.466,-1.096 -4.3155,-2.877 -1.8495,-1.8495 -2.9455,-4.247 -1.0275,-2.466 -1.0275,-5.2745 z m 4.3155,0.0685 q 0,1.918 0.685,3.6305 0.7535,1.644 1.9865,2.877 1.233,1.233 2.877,1.9865 1.7125,0.685 3.6305,0.685 1.918,0 3.6305,-0.685 1.7125,-0.7535 2.9455,-1.9865 1.3015,-1.233 1.9865,-2.877 0.7535,-1.7125 0.7535,-3.6305 0,-1.918 -0.7535,-3.6305 -0.685,-1.7125 -1.9865,-2.9455 -1.233,-1.3015 -2.9455,-1.9865 -1.7125,-0.7535 -3.6305,-0.7535 -1.918,0 -3.6305,0.7535 -1.644,0.685 -2.877,1.9865 -1.233,1.233 -1.9865,2.9455 -0.685,1.7125 -0.685,3.6305 z"
       style="font-weight:600;font-size:68.5px;font-family:'Josefin Slab';fill:#cd5c5c"
       id="path3634"
       inkscape:connector-curvature="0" />
    <path
       d="m 321.01766,49.998501 4.98234,0 0,-12.878 c -0.0913,-1.324333 -0.23301,-2.488833 -1.14634,-3.4935 -0.86767,-1.004667 -2.21483,-1.552667 -4.0415,-1.644 -1.32433,0 -2.58017,0.228333 -3.7675,0.685 -1.14167,0.456667 -2.16917,1.073167 -3.0825,1.8495 -0.91333,0.776333 -1.644,1.7125 -2.192,2.8085 C 311.26783,38.376334 311,39.540834 311,40.819501 l 0,9.179 4.74316,0 0,4.0415 -14.248,0 0,-4.0415 5.50484,0 L 307,32 l -5,0 0,-4 8.40016,0 0.0685,1.859501 c 0.0457,0.959 0.0913,1.826667 0.137,2.603 0.0913,0.730667 0.15983,1.5755 0.2055,2.5345 0.91333,-2.192 2.37467,-3.927333 4.384,-5.206 2.055,-1.324333 4.33833,-1.9865 6.85,-1.9865 2.603,0 4.658,0.707833 6.165,2.1235 1.507,1.415667 1.69851,3.265167 1.78984,5.5485 l 0,14.522 5,0 0,4.0415 -13.98234,0 z"
       style="font-weight:600;font-size:68.5px;font-family:'Josefin Slab';fill:#cd5c5c"
       id="path3636"
       inkscape:connector-curvature="0"
       sodipodi:nodetypes="ccccccscsccccccccccccccsscccccc" />
    <path
       d="m 353.7232,31.914501 q -2.1235,0 -3.9045,0.822 -1.781,0.822 -3.014,2.192 -1.233,1.37 -1.8495,3.151 -0.6165,1.781 -0.411,3.7675 3.9045,-1.507 7.809,-2.9455 3.9045,-1.507 7.809,-3.014 -1.0275,-1.781 -2.74,-2.877 -1.644,-1.096 -3.699,-1.096 z m 11.919,6.3705 -19.9335,7.6035 q 1.1645,2.055 3.2195,3.288 2.1235,1.233 4.795,1.233 1.8495,0 3.425,-0.685 1.644,-0.685 2.8085,-1.8495 0.6165,0.7535 1.233,1.5755 0.685,0.7535 1.37,1.507 -1.781,1.7125 -4.0415,2.6715 -2.192,0.959 -4.795,0.959 -2.8085,0 -5.2745,-1.0275 -2.466,-1.096 -4.3155,-2.877 -1.8495,-1.8495 -2.9455,-4.247 -1.0275,-2.466 -1.0275,-5.2745 0,-2.74 1.0275,-5.206 1.096,-2.466 2.9455,-4.247 1.8495,-1.8495 4.3155,-2.877 2.466,-1.096 5.2745,-1.096 2.1235,0 3.973,0.822 1.918,0.7535 3.425,2.192 1.5755,1.37 2.74,3.3565 1.1645,1.918 1.781,4.1785 z"
       style="font-weight:600;font-size:68.5px;font-family:'Josefin Slab';fill:#cd5c5c"
       id="path3638"
       inkscape:connector-curvature="0" />
  </g>
  <path
     sodipodi:nodetypes="ccccccc"
     d="m 12,12 16,0 0,4 -12,0 0,12 -4,0 z"
     id="path3642"
     inkscape:connector-curvature="0"
     style="fill:#cd5c5c" />
</svg>
