<?xml version="1.0" standalone="no"?>
<!DOCTYPE svg PUBLIC "-//W3C//DTD SVG 20010904//EN"
 "http://www.w3.org/TR/2001/REC-SVG-20010904/DTD/svg10.dtd">
<svg version="1.0" xmlns="http://www.w3.org/2000/svg"
 width="16.000000pt" height="16.000000pt" viewBox="0 0 16.000000 16.000000"
 preserveAspectRatio="xMidYMid meet">
<metadata>
Created by potrace 1.11, written by Peter Selinger 2001-2013
</metadata>
<g transform="translate(0.000000,16.000000) scale(0.002286,-0.002286)"
fill="#000000" stroke="none">
<path d="M881 6115 c-9 -13 -7 -3117 3 -3165 46 -234 220 -382 441 -375 165 5
289 85 372 240 53 101 53 95 53 1311 l0 1124 1128 1 c620 0 1141 3 1157 5 73
11 168 50 224 92 168 126 217 363 114 548 -60 108 -192 198 -323 220 -71 12
-3160 11 -3169 -1z"/>
<path d="M2213 4812 c-21 -3 -23 -9 -24 -65 -4 -424 1 -3060 6 -3098 19 -135
117 -284 223 -338 129 -66 285 -66 414 0 101 51 194 188 218 319 9 48 13 359
13 1186 l0 1121 1116 0 c614 0 1138 3 1164 7 70 10 172 51 226 90 168 124 219
354 119 549 -48 96 -185 190 -312 217 -45 9 -427 12 -1600 14 -848 0 -1551 0
-1563 -2z"/>
</g>
</svg>
